<svg xmlns="http://www.w3.org/2000/svg" width="2500" height="2500" viewBox="0 0 26.458 26.458"><path d="M12.915 21.018h.628v-1.12h-.628zm-.33.003h.314v-1.12h-.314zM12.27 21.02h.314v-1.12h-.314zm-.314 0h.314v-1.12h-.314zm1.884 0h.314v-1.12h-.314zm.314 0h.314v-1.12h-.314zm.314 0h.314v-1.12h-.314zm.315 0h.314v-1.12h-.314zM12.915 15.69h.628v-1.12h-.628zm-.33.002h.314v-1.12h-.314zM12.27 15.69h.314v-1.12h-.314zm-.314 0h.314v-1.12h-.314zm1.884 0h.314v-1.12h-.314zm.314 0h.314v-1.12h-.314zm.314 0h.314v-1.12h-.314zm.315 0h.314v-1.12h-.314zM12.915 10.36h.628V9.24h-.628zm-.33.002h.314V9.24h-.314zM12.27 10.36h.314V9.24h-.314zm-.314 0h.314V9.24h-.314zm1.884 0h.314V9.24h-.314zm.314 0h.314V9.24h-.314zm.314 0h.314V9.24h-.314zm.315 0h.314V9.24h-.314zM12.915 5.033h.628V3.912h-.628zm-.33.002h.314V3.912h-.314zM12.27 5.034h.314V3.912h-.314zm-.314 0h.314V3.912h-.314zm1.884 0h.314V3.912h-.314zm.314 0h.314V3.912h-.314zm.314 0h.314V3.912h-.314zm.315 0h.314V3.912h-.314z" style="fill:#000;fill-opacity:1;stroke-width:.0636888;paint-order:stroke fill markers"/></svg>