<svg xmlns="http://www.w3.org/2000/svg" viewBox="0 0 100 100"><path d="M41.6,20.8c5.4-5.4,12.7-8.1,20.8-8.1c8.1,0,15.4,2.7,20.8,8.1c5.4,5.4,8.1,12.7,8.1,20.8c0,8.1-2.7,15.4-8.1,20.8   c-5.4,5.4-12.7,8.1-20.8,8.1c-8.1,0-15.4-2.7-20.8-8.1c-5.4-5.4-8.1-12.7-8.1-20.8C33.5,33.5,36.2,26.3,41.6,20.8z M62.4,16.8   c-6.8,0-13,2.4-18.4,7.2c-5.4,4.8-8.1,10.6-8.1,17.6c0,7,2.7,12.9,8.1,17.6c5.4,4.8,11.6,7.2,18.4,7.2c6.8,0,13-2.4,18.4-7.2   c5.4-4.8,8.1-10.6,8.1-17.6c0-7-2.7-12.9-8.1-17.6C75.4,19.2,69.2,16.8,62.4,16.8z"/><path d="M58.4,79.2c-5.4,5.4-12.7,8.1-20.8,8.1c-8.1,0-15.4-2.7-20.8-8.1c-5.4-5.4-8.1-12.7-8.1-20.8c0-8.1,2.7-15.4,8.1-20.8   c5.4-5.4,12.7-8.1,20.8-8.1c8.1,0,15.4,2.7,20.8,8.1c5.4,5.4,8.1,12.7,8.1,20.8C66.5,66.5,63.8,73.7,58.4,79.2z M37.6,83.2   c6.8,0,13-2.4,18.4-7.2c5.4-4.8,8.1-10.6,8.1-17.6c0-7-2.7-12.9-8.1-17.6c-5.4-4.8-11.6-7.2-18.4-7.2c-6.8,0-13,2.4-18.4,7.2   c-5.4,4.8-8.1,10.6-8.1,17.6c0,7,2.7,12.9,8.1,17.6C24.6,80.8,30.8,83.2,37.6,83.2z"/></svg>