<svg xmlns="http://www.w3.org/2000/svg" viewBox="0 0 24 24"><path d="M11.64 0c-4.46 0-8.18 2.04-9.9 5.25L0 5.09v1.67l2.1-.1c.32-2.14 2.7-4.14 6.22-4.14 4.14 0 6.69 2.94 6.69 6.81 0 4.14-3.08 6.94-6.42 6.94-1.28 0-2.43-.27-3.32-.73V13.8l-1.9.06v4.61c.45.1 1 .15 1.5.15 4.54 0 8.32-2.19 9.92-5.4l1.74.16v-1.68l-2.07.1c-.26 2.14-2.58 4.14-6.11 4.14-4.14 0-6.69-2.94-6.69-6.81C0 4.22 3.08 1.32 6.42 1.32c1.28 0 2.43.27 3.32.73V3.7l1.9-.06V.02C11.68 0 11.66 0 11.64 0zm.36 12.3c4.46 0 8.18-2.04 9.9-5.25L24 7.21v-1.67l-2.1.1c-.32 2.14-2.7 4.14-6.22 4.14-4.14 0-6.69-2.94-6.69-6.81C4.51 3.5 7.59.6 10.93.6c1.28 0 2.43.27 3.32.73V-.35l1.9.06V3.7c0 .02.02.04.04.04 4.54 0 8.32 2.19 9.92 5.4l1.74-.16v1.68l-2.07-.1c.26-2.14 2.58-4.14 6.11-4.14 4.14 0 6.69 2.94 6.69 6.81 0 4.59-3.08 7.49-6.42 7.49-1.28 0-2.43-.27-3.32-.73v-1.67l-1.9.06v3.7Z"/></svg>